#!OML:ASF E:\Steps\Project 1\Capture day 1\Session 2\Subject.ASF
:FULLY-SPECIFIED
:DEGREES
377
root -0.923353 15.7321 18.5509 -170.655 -6.16427 189.649
lowerback -22.0409 -3.93222 -7.9126
upperback 1.32793 -3.32357 0.579343
thorax 14.4981 -2.20345 4.03224
lowerneck 0.836169 -6.81597 -0.774336
upperneck 21.0056 -8.78214 6.76759
head 6.58575 -3.07344 1.90025
rclavicle 3.97569e-015 9.54166e-015
rhumerus -50.445 -16.223 -73.3824
rradius 33.4582
rwrist -1.44301
rhand -7.91011 -52.1357
rfingers 7.12502
rthumb -162.005 -261.323
lclavicle 3.97569e-015 9.54166e-015
lhumerus -38.0108 1.94317 72.2816
lradius 23.4423
lwrist -2.35867
lhand -21.7731 -11.5038
lfingers 7.12502
lthumb 4.6279 18.4257
rfemur -60.8119 -8.33055 11.9465
rtibia 33.8729
rfoot -9.66546 -8.25115
rtoes -26.8584
lfemur -5.55976 -13.3409 -12.0647
ltibia 28.1461
lfoot -25.821 0.979998
ltoes -17.618
378
root -0.894961 15.7148 18.4886 -170.52 -6.17751 189.512
lowerback -22.1803 -4.00275 -8.10051
upperback 1.34776 -3.35633 0.594465
thorax 14.622 -2.2379 4.13903
lowerneck 0.842551 -6.83282 -0.736713
upperneck 20.8989 -8.81267 6.75449
head 6.54934 -3.09667 1.88757
rclavicle 7.95139e-016 1.43125e-014
rhumerus -50.486 -16.3721 -73.0392
rradius 33.2815
rwrist -1.71491
rhand -8.25136 -51.558
rfingers 7.12502
rthumb -162.333 -260.775
lclavicle 7.95139e-016 1.43125e-014
lhumerus -38.0626 1.80958 72.4543
lradius 23.5493
lwrist -1.8888
lhand -21.853 -12.0976
lfingers 7.12502
lthumb 4.55071 17.8335
rfemur -60.9928 -8.40894 11.8043
rtibia 34.1187
rfoot -9.48714 -7.92517
rtoes -26.2394
lfemur -5.46181 -13.3953 -12.1362
ltibia 28.2344
lfoot -26.0676 1.12403
ltoes -18.1049
379
root -0.853919 15.6908 18.4207 -170.742 -6.16718 190.141
lowerback -22.0252 -3.952 -7.63961
upperback 1.41282 -3.44684 0.845078
thorax 14.6089 -2.25363 4.13909
lowerneck 0.531571 -6.81806 -0.787658
upperneck 21.3678 -8.77595 6.6328
head 6.75007 -3.05608 1.85071
rclavicle -2.00773e-014 3.18055e-015
rhumerus -50.5521 -16.4415 -72.6541
rradius 33.0996
rwrist -1.77265
rhand -8.23329 -51.3405
rfingers 7.12502
rthumb -162.316 -260.556
lclavicle -2.00773e-014 3.18055e-015
lhumerus -38.0803 1.94411 72.4628
lradius 23.561
lwrist -2.05152
lhand -21.5172 -11.8917
lfingers 7.12502
lthumb 4.87492 18.0322
rfemur -60.7477 -8.04418 12.4694
rtibia 34.1162
rfoot -9.12477 -7.74975
rtoes -26.2337
lfemur -4.942 -13.3623 -11.3146
ltibia 28.1201
lfoot -26.352 1.42485
ltoes -19.6985
380
root -0.845266 15.6745 18.3727 -170.21 -6.16808 189.506
lowerback -22.3037 -4.06377 -8.00076
upperback 1.28263 -3.47271 0.693703
thorax 14.6325 -2.28772 4.15182
lowerneck 0.632077 -6.85155 -0.727677
upperneck 21.0256 -8.82918 6.54507
head 6.61749 -3.11684 1.8106
rclavicle -9.34288e-015 3.18055e-015
rhumerus -50.6806 -16.5144 -72.3373
rradius 33.0438
rwrist -1.77448
rhand -8.50177 -51.4949
rfingers 7.12502
rthumb -162.574 -260.734
lclavicle -9.34288e-015 3.18055e-015
lhumerus -38.0279 2.15106 72.3957
lradius 23.5063
lwrist -2.47447
lhand -21.1725 -11.5659
lfingers 7.12502
lthumb 5.20775 18.3501
rfemur -61.5692 -8.73326 12.2401
rtibia 34.7446
rfoot -8.91158 -7.02998
rtoes -27.9459
lfemur -5.18626 -13.7823 -12.1329
ltibia 28.2354
lfoot -26.5715 1.81056
ltoes -20.8534
381
root -0.82471 15.6563 18.3186 -169.918 -6.19357 189.408
lowerback -22.5017 -4.07558 -7.91391
upperback 1.28991 -3.49179 0.664112
thorax 14.7502 -2.29165 4.05311
lowerneck 0.408331 -6.84072 -0.631876
upperneck 21.0324 -8.82795 6.43356
head 6.64906 -3.12147 1.75122
rclavicle -2.41523e-014 1.59028e-015
rhumerus -50.7551 -16.6631 -72.1351
rradius 33.0712
rwrist -1.69476
rhand -8.8093 -51.7549
rfingers 7.12502
rthumb -162.87 -261.02
lclavicle -2.41523e-014 1.59028e-015
lhumerus -37.8468 2.27532 72.3742
lradius 23.3562
lwrist -2.59863
lhand -21.3824 -11.9265
lfingers 7.12502
lthumb 5.00509 17.9944
rfemur -62.1762 -8.70756 12.2051
rtibia 35.5637
rfoot -9.34774 -6.83415
rtoes -28.2848
lfemur -5.27475 -13.9825 -12.2041
ltibia 28.3317
lfoot -26.6464 1.97869
ltoes -21.6204
382
root -0.796229 15.6388 18.2537 -169.633 -6.16399 189.134
lowerback -22.7412 -4.11869 -8.096
upperback 1.29248 -3.47393 0.608948
thorax 14.8986 -2.30038 4.08952
lowerneck 0.33865 -6.85102 -0.659685
upperneck 21.0582 -8.85635 6.49569
head 6.67473 -3.1308 1.77154
rclavicle 3.52843e-014 6.36111e-015
rhumerus -50.8591 -16.7531 -71.9513
rradius 33.0557
rwrist -1.60335
rhand -8.87791 -51.7301
rfingers 7.12502
rthumb -162.936 -261.001
lclavicle 3.52843e-014 6.36111e-015
lhumerus -37.785 2.10046 72.5051
lradius 23.3024
lwrist -2.40445
lhand -21.74 -12.2235
lfingers 7.12502
lthumb 4.65982 17.7053
rfemur -62.5851 -9.18105 12.3018
rtibia 35.779
rfoot -9.23575 -6.14776
rtoes -27.1585
lfemur -5.30457 -14.0384 -12.422
ltibia 28.4081
lfoot -26.8437 1.8949
ltoes -20.9456
383
root -0.752432 15.617 18.1827 -169.647 -6.13853 189.548
lowerback -22.7381 -4.07235 -7.79016
upperback 1.31829 -3.51459 0.786909
thorax 14.9252 -2.30343 4.10716
lowerneck 0.247164 -6.80953 -0.942679
upperneck 21.2457 -8.84001 6.89299
head 6.78109 -3.09323 1.94475
rclavicle 2.6339e-014 1.59028e-014
rhumerus -51.0266 -16.7815 -71.7457
rradius 33.0146
rwrist -1.6025
rhand -8.91437 -51.6355
rfingers 7.12502
rthumb -162.971 -260.909
lclavicle 2.6339e-014 1.59028e-014
lhumerus -37.888 1.7815 72.6896
lradius 23.529
lwrist -2.0445
lhand -21.5856 -12.0038
lfingers 7.12502
lthumb 4.80895 17.9216
rfemur -62.634 -8.89548 12.8594
rtibia 35.9795
rfoot -9.096 -6.04226
rtoes -27.3198
lfemur -5.02646 -13.9293 -11.7678
ltibia 28.3671
lfoot -27.1002 1.74664
ltoes -19.9988
384
root -0.724155 15.5954 18.1228 -169.426 -6.14033 189.457
lowerback -22.7241 -4.08554 -7.73536
upperback 1.24977 -3.55573 0.790932
thorax 14.8364 -2.31526 4.0674
lowerneck 0.358059 -6.6832 -0.85558
upperneck 21.1134 -8.65925 6.89054
head 6.70661 -3.00829 1.94444
rclavicle -8.44835e-015 -2.06736e-014
rhumerus -51.2638 -16.8478 -71.4827
rradius 32.9931
rwrist -1.62014
rhand -9.05649 -51.6825
rfingers 7.12502
rthumb -163.108 -260.968
lclavicle -8.44835e-015 -2.06736e-014
lhumerus -37.9323 1.98419 72.5782
lradius 23.6268
lwrist -2.37581
lhand -21.1658 -11.7089
lfingers 7.12502
lthumb 5.21428 18.2069
rfemur -63.086 -9.22858 13.2052
rtibia 36.4097
rfoot -8.79968 -5.56607
rtoes -28.5555
lfemur -4.95608 -14.1067 -11.8197
ltibia 28.3958
lfoot -27.3521 1.85441
ltoes -19.5357
385
root -0.700046 15.5733 18.0633 -169.174 -6.12882 189.154
lowerback -22.6637 -4.11805 -7.80703
upperback 1.15944 -3.58695 0.735771
thorax 14.6979 -2.32853 4.03696
lowerneck 0.482124 -6.78367 -0.673624
upperneck 21.0773 -8.74659 6.53501
head 6.65375 -3.07207 1.7985
rclavicle 4.17448e-015 1.74931e-014
rhumerus -51.5411 -16.9089 -71.1419
rradius 32.9499
rwrist -1.57877
rhand -8.90859 -51.5416
rfingers 7.12502
rthumb -162.966 -260.815
lclavicle 4.17448e-015 1.74931e-014
lhumerus -37.9789 2.1113 72.5726
lradius 23.5452
lwrist -2.44607
lhand -21.4563 -12.1563
lfingers 7.12502
lthumb 4.93378 17.7663
rfemur -63.5732 -9.6563 13.3033
rtibia 36.8219
rfoot -8.58553 -5.04437
rtoes -28.9231
lfemur -4.92308 -14.3849 -12.1652
ltibia 28.5239
lfoot -27.6672 1.95713
ltoes -19.1135
386
root -0.658032 15.5569 17.9962 -169.079 -6.05386 189.135
lowerback -22.5578 -4.13573 -7.84959
upperback 1.1446 -3.61789 0.810887
thorax 14.6324 -2.3476 4.14163
lowerneck 0.688539 -6.80333 -0.646946
upperneck 20.9044 -8.75248 6.44209
head 6.55716 -3.09623 1.77004
rclavicle 1.31198e-014 -5.725e-014
rhumerus -51.7716 -16.8707 -70.8903
rradius 32.933
rwrist -1.56325
rhand -8.60317 -51.3654
rfingers 7.12502
rthumb -162.672 -260.613
lclavicle 1.31198e-014 -5.725e-014
lhumerus -37.9605 2.03709 72.7303
lradius 23.4904
lwrist -2.36676
lhand -21.848 -12.5936
lfingers 7.12502
lthumb 4.55554 17.3374
rfemur -63.7151 -9.34942 13.2625
rtibia 36.9637
rfoot -8.43821 -5.09682
rtoes -28.4827
lfemur -4.76618 -14.469 -12.0432
ltibia 28.5799
lfoot -27.9867 2.29232
ltoes -20.4553
387
root -0.63327 15.5385 17.9408 -169.013 -6.14063 189.22
lowerback -22.2696 -4.11312 -7.5344
upperback 1.14537 -3.70102 0.870335
thorax 14.4598 -2.35792 4.01253
lowerneck 0.492032 -6.85524 -0.521131
upperneck 21.0088 -8.82072 6.27012
head 6.61445 -3.1285 1.68362
rclavicle -1.49089e-014 -1.11319e-013
rhumerus -51.9169 -16.8549 -70.7192
rradius 32.8994
rwrist -1.4539
rhand -8.72064 -51.3537
rfingers 7.12502
rthumb -162.785 -260.611
lclavicle -1.49089e-014 -1.11319e-013
lhumerus -37.8145 2.15239 72.747
lradius 23.5387
lwrist -2.84096
lhand -21.4262 -11.9165
lfingers 7.12502
lthumb 4.96283 18.0054
rfemur -63.851 -9.51156 13.5757
rtibia 37.1946
rfoot -8.10605 -4.55973
rtoes -27.8749
lfemur -4.58884 -14.5698 -11.916
ltibia 28.5738
lfoot -28.1144 2.76312
ltoes -21.7515
388
root -0.573467 15.5175 17.8618 -169.272 -5.99835 189.952
lowerback -22.0059 -3.99776 -7.06477
upperback 1.26067 -3.71818 1.17642
thorax 14.4367 -2.34347 4.10084
lowerneck 0.0212583 -6.92676 -0.217439
upperneck 21.5257 -8.88118 5.81139
head 6.83168 -3.13412 1.46825
rclavicle -1.80894e-014 -1.59028e-014
rhumerus -52.1024 -16.9804 -70.4513
rradius 32.7978
rwrist -1.25066
rhand -8.91105 -51.4406
rfingers 7.12502
rthumb -162.968 -260.714
lclavicle -1.80894e-014 -1.59028e-014
lhumerus -37.8681 1.80647 72.9311
lradius 23.8308
lwrist -2.34683
lhand -21.0812 -11.4848
lfingers 7.12502
lthumb 5.29599 18.429
rfemur -63.5947 -8.64846 14.24
rtibia 37.2554
rfoot -7.91401 -4.66338
rtoes -28.5234
lfemur -4.0418 -14.24 -10.8258
ltibia 28.4382
lfoot -28.1801 3.14615
ltoes -22.78
